# xmcd
#
# Track frame offsets: 
#        150
#        10318
#        23163
#        36843
#        49511
#        59031
#        72003
#        83068
#        96038
#        105343
#        118748
#        130286
#        141581
#        155991
#
# Disc length: 2304 seconds
#
# Revision: 0
# Processed by: cddbd v1.5.2PL0 Copyright (c) Steve Scherf et al.
# Submitted via: ExactAudioCopy v0.95b4
#
DISCID=c108fe0e
DTITLE=Various Artist - Awesome R&B 1960s - Soul,Blues And Beat!
DYEAR=1900
DGENRE=Soul
TTITLE0=Earl Hooker - The Bright Sound
TTITLE1=Vernon and Jewel - (That's) A Rockin' Good Way
TTITLE2=Junior Wells - She's A Sweet One
TTITLE3=A.C. Reed - Lotta Lovin'
TTITLE4=Little Henry and The Shamrocks - The Ta Ta Song
TTITLE5=The Intentions - Dancing Fast, Dancing Slow
TTITLE6=B.B.King - You Never Know
TTITLE7=Willie Hutch - I Can't Get Enough
TTITLE8=Ike and Tina Turner - I Can't Believe What You Say
TTITLE9=Z.Z. Hill - Hey Little Girl
TTITLE10=Trini Lopez - Sinner Not A Saint
TTITLE11=Vanetta Fields - Give Me A Chance (Try Me)
TTITLE12=Jimmy Robins - That Someone Don't Know It
TTITLE13=Jimmy Witherspoon - Stormy Monday Blues
EXTD=
EXTT0=
EXTT1=
EXTT2=
EXTT3=
EXTT4=
EXTT5=
EXTT6=
EXTT7=
EXTT8=
EXTT9=
EXTT10=
EXTT11=
EXTT12=
EXTT13=
PLAYORDER=
